<svg width="755" height="129" viewBox="0 0 755 129" fill="none" xmlns="http://www.w3.org/2000/svg">
<path d="M187.671 101.559H202.504V43.4442H221.909V29.4236H168.469V43.4442H187.671V101.559Z" fill="white"/>
<path d="M221.931 101.558H235.85V77.2764C235.85 68.8434 240.219 63.7634 246.823 63.7634C249.159 63.7634 250.988 64.1699 253.122 64.8814V50.7589C251.395 50.2509 249.972 50.1494 248.448 50.1494C242.759 50.1494 237.577 53.9084 235.85 58.8869V50.7589H221.931V101.558Z" fill="white"/>
<path d="M279.837 102.676C286.848 102.676 292.131 99.12 294.467 95.869V101.559H308.387V50.759H294.467V56.4485C292.131 53.1975 286.848 49.6416 279.837 49.6416C266.325 49.6416 255.962 61.8335 255.962 76.1585C255.962 90.484 266.325 102.676 279.837 102.676ZM282.784 89.976C275.062 89.976 269.982 84.185 269.982 76.1585C269.982 68.1325 275.062 62.3415 282.784 62.3415C290.505 62.3415 295.585 68.1325 295.585 76.1585C295.585 84.185 290.505 89.976 282.784 89.976Z" fill="white"/>
<path d="M341.526 102.676C348.536 102.676 353.819 99.12 356.156 95.869V101.559H370.075V25.3596H356.156V56.4485C353.819 53.1975 348.536 49.6416 341.526 49.6416C328.014 49.6416 317.651 61.8335 317.651 76.1585C317.651 90.484 328.014 102.676 341.526 102.676ZM344.472 89.976C336.751 89.976 331.671 84.185 331.671 76.1585C331.671 68.1325 336.751 62.3415 344.472 62.3415C352.194 62.3415 357.274 68.1325 357.274 76.1585C357.274 84.185 352.194 89.976 344.472 89.976Z" fill="white"/>
<path d="M389.5 42.4281C394.478 42.4281 398.441 38.4657 398.441 33.5891C398.441 28.7124 394.478 24.75 389.5 24.75C384.725 24.75 380.661 28.7124 380.661 33.5891C380.661 38.4657 384.725 42.4281 389.5 42.4281ZM382.591 101.559H396.51V50.759H382.591V101.559Z" fill="white"/>
<path d="M408.86 101.559H422.779V76.7685C422.779 67.015 427.554 62.3415 434.056 62.3415C439.847 62.3415 442.997 66.8115 442.997 74.127V101.559H456.916V71.79C456.916 58.582 449.601 49.6416 437.307 49.6416C430.703 49.6416 425.522 52.4865 422.779 56.5505V50.759H408.86V101.559Z" fill="white"/>
<path d="M492.336 88.3505C485.326 88.3505 479.434 83.0675 479.434 75.346C479.434 67.523 485.326 62.3415 492.336 62.3415C499.346 62.3415 505.24 67.523 505.24 75.346C505.24 83.0675 499.346 88.3505 492.336 88.3505ZM490.711 123.809C506.255 123.809 518.04 115.883 518.04 97.596V50.759H504.12V56.4485C501.38 52.4865 495.893 49.6416 489.39 49.6416C476.081 49.6416 465.413 61.0205 465.413 75.346C465.413 89.5695 476.081 100.949 489.39 100.949C495.893 100.949 501.38 98.0025 504.12 94.243V97.6975C504.12 105.826 498.737 111.617 490.508 111.617C484.818 111.617 479.128 109.686 474.658 105.317L467.039 115.68C472.83 121.268 481.871 123.809 490.711 123.809Z" fill="white"/>
<path d="M547.47 101.558H560.575L590.445 29.4233H574.19L554.075 79.5113L533.655 29.4233H517.7L547.47 101.558Z" fill="white"/>
<path d="M603.215 42.4281C608.195 42.4281 612.16 38.4657 612.16 33.5891C612.16 28.7124 608.195 24.75 603.215 24.75C598.44 24.75 594.38 28.7124 594.38 33.5891C594.38 38.4657 598.44 42.4281 603.215 42.4281ZM596.31 101.559H610.23V50.759H596.31V101.559Z" fill="white"/>
<path d="M646.25 102.676C656.92 102.676 665.045 98.2055 669.82 91.297L659.46 83.5755C657.12 87.1315 652.75 89.976 646.35 89.976C639.645 89.976 633.65 86.217 632.84 79.41H670.835C671.14 77.2765 671.04 75.854 671.04 74.635C671.04 58.074 659.355 49.6416 646.045 49.6416C630.605 49.6416 619.325 61.122 619.325 76.1585C619.325 92.2115 631.11 102.676 646.25 102.676ZM633.345 69.961C634.67 63.7635 640.46 61.122 645.64 61.122C650.82 61.122 655.9 63.8655 657.12 69.961H633.345Z" fill="white"/>
<path d="M723.185 101.559H737.005L753.77 50.759H738.835L729.285 83.2705L718.92 50.759H708.25L697.99 83.2705L688.34 50.759H673.505L690.37 101.559H704.19L713.635 72.7045L723.185 101.559Z" fill="white"/>
<path fill-rule="evenodd" clip-rule="evenodd" d="M56.142 101.593H29.4077V56.1445H0V29.4102H56.142V101.593ZM96.2435 45.4508C96.2435 54.3095 89.062 61.4915 80.203 61.4915C71.344 61.4915 64.1625 54.3095 64.1625 45.4508C64.1625 36.5918 71.344 29.4102 80.203 29.4102C89.062 29.4102 96.2435 36.5918 96.2435 45.4508ZM80.203 101.593L110.948 29.4102H143.029L112.284 101.593H80.203Z" fill="white"/>
</svg>
